<?xml version="1.0" encoding="utf-8"?>
<svg version="1.1" id="Layer_1" xmlns="http://www.w3.org/2000/svg" xmlns:xlink="http://www.w3.org/1999/xlink" x="0px" y="0px"
	 viewBox="0 0 30 30" width="30" height="30" style="enable-background:new 0 0 30 30;" xml:space="preserve">
<style type="text/css">
	.st0{fill:#FFFFFF;}
</style>
<path class="st0" d="M22.5,22.2l1,0.7l4.4-4.4L19.9,7V0.1l-2.5,2.1c-0.6,0.5-1.2,1.1-1.9,1.6C8.7,10.2,4,18.9,2.4,28.1l-0.3,1.8h20.9
	l-3-8.4v-0.3C20.8,21.4,21.7,21.7,22.5,22.2z M14.7,15.4c-0.7,0.6-1,1.4-1,2.4c0,0.9,0.3,1.8,1,2.5c0.6,0.7,1.5,1.1,2.4,1.2
	c0,0,0.1,0,0.1,0c0.5,0,0.9-0.1,1.3-0.2l1.1,3.7l1.3,3.6H3.9c1.6-9.2,6.2-17.4,12.7-23.4c0.6-0.5,1.2-1.1,1.8-1.6v4.1l7.5,10.9
	l-2.6,2.6c-1.4-0.9-3-1.4-4.8-1.4c-0.8,0.7-2.1,0.6-2.9-0.3c-0.4-0.4-0.6-1-0.6-1.5c0-0.5,0.2-1,0.6-1.4L14.7,15.4z"/>
</svg>
